External Loads File
version=1
nRows=54
nColumns=13
Range=5.000000e-03-10 seconds
endheader
time 	forceRightX 	forceRightY 	forceRightZ 	pointRightX 	pointRightY 	pointRightZ 	forceLeftX 	forceLeftY 	forceLeftZ 	pointLeftX 	pointLeftY 	pointLeftZ 		
2.505000 7.156530 -122.315814 -0.000000 0.076787 0.352346 -0.156549 -190.561830 759.132979 -0.000000 0.356082 0.284660 -0.404238
2.510000 1.686088 -122.053306 -0.000000 0.078231 0.359109 -0.156642 -177.140443 750.521634 -0.000000 0.355338 0.278412 -0.403700
2.515000 -4.433519 -121.566805 -0.000000 0.079950 0.365867 -0.156719 -163.121520 741.664878 -0.000000 0.354589 0.272095 -0.403571
2.520000 -11.168089 -120.838724 -0.000000 0.081892 0.373007 -0.156852 -148.079366 732.901368 -0.000000 0.353519 0.265914 -0.403516
2.525000 -18.101157 -119.853112 -0.000000 0.084108 0.379674 -0.156996 -133.760919 724.183036 -0.000000 0.352155 0.259686 -0.403476
2.530000 -25.119051 -118.557499 -0.000000 0.086525 0.386233 -0.157216 -119.908394 715.968677 -0.000000 0.350546 0.253475 -0.403385
2.535000 -32.035019 -116.886564 -0.000000 0.089166 0.392858 -0.157451 -106.531626 708.643620 -0.000000 0.348702 0.247304 -0.403325
2.540000 -38.502271 -114.837581 -0.000000 0.092050 0.399289 -0.157518 -94.538316 702.424124 -0.000000 0.346543 0.241335 -0.403256
2.545000 -44.504587 -112.347560 -0.000000 0.095154 0.405783 -0.157715 -82.949364 697.780191 -0.000000 0.344110 0.235364 -0.403217
2.550000 -49.853574 -109.434404 -0.000000 0.098526 0.412069 -0.157848 -72.067775 694.944914 -0.000000 0.341400 0.229383 -0.403101
2.555000 -54.432985 -106.128771 -0.000000 0.101977 0.418333 -0.158054 -62.067992 694.072728 -0.000000 0.338437 0.223608 -0.403036
2.560000 -58.254858 -102.422085 -0.000000 0.105676 0.424413 -0.158260 -52.684116 695.204838 -0.000000 0.335232 0.217944 -0.402944
2.565000 -61.389167 -98.280114 -0.000000 0.109835 0.430179 -0.158328 -43.619284 698.220271 -0.000000 0.331763 0.212414 -0.402864
2.570000 -63.957580 -93.643643 -0.000000 0.114025 0.436124 -0.158485 -34.466076 702.865285 -0.000000 0.328102 0.206925 -0.402718
2.575000 -65.885229 -88.603303 -0.000000 0.118282 0.441556 -0.158683 -26.569203 708.695805 -0.000000 0.324191 0.201825 -0.402590
2.580000 -67.671934 -82.831571 -0.000000 0.123460 0.446916 -0.158196 -17.003717 715.379660 -0.000000 0.320079 0.196696 -0.402410
2.585000 -68.975444 -76.623849 -0.000000 0.127370 0.452064 -0.159101 -9.922543 722.352702 -0.000000 0.315689 0.191909 -0.402241
2.590000 -70.484606 -69.371501 -0.000000 0.132534 0.457123 -0.158916 -0.458897 729.239026 -0.000000 0.311092 0.187252 -0.402078
2.595000 -72.031753 -61.135254 -0.000000 0.137428 0.462033 -0.159333 8.605503 735.421879 -0.000000 0.306310 0.182855 -0.401858
2.600000 -73.819634 -51.591189 -0.000000 0.142683 0.466468 -0.159872 18.259861 740.223247 -0.000000 0.301338 0.178710 -0.401649
2.605000 -75.867265 -40.579467 -0.000000 0.147829 0.470937 -0.160041 28.330593 742.911907 -0.000000 0.296185 0.174793 -0.401470
2.610000 -78.143755 -27.972671 -0.000000 0.153575 0.474828 -0.159969 39.529428 742.720413 -0.000000 0.290892 0.171133 -0.401315
2.615000 -80.454079 -13.969220 -0.000000 0.159150 0.478676 -0.160061 50.806971 738.950969 -0.000000 0.285472 0.167808 -0.401135
2.620000 -82.642291 1.288567 -0.000000 0.164933 0.482302 -0.160118 62.761469 730.804443 -0.000000 0.279949 0.164711 -0.400928
2.625000 -84.538923 17.370924 -0.000000 0.170441 0.485581 -0.160243 74.130665 717.590355 -0.000000 0.274368 0.161908 -0.400719
2.630000 -86.009101 33.997133 -0.000000 0.175949 0.488702 -0.160278 85.512076 698.435298 -0.000000 0.268733 0.159455 -0.400491
2.635000 -86.877183 50.891532 -0.000000 0.181901 0.491409 -0.160370 97.562268 672.455991 -0.000000 0.263005 0.157331 -0.400256
2.640000 -87.198024 67.473957 -0.000000 0.187299 0.494111 -0.160281 108.117409 639.404216 -0.000000 0.257291 0.155412 -0.400058
2.645000 -86.899247 83.642097 -0.000000 0.192799 0.496382 -0.160322 117.802384 599.025747 -0.000000 0.251557 0.154025 -0.399843
2.650000 -86.038729 99.286110 -0.000000 0.198345 0.498443 -0.160328 125.986945 551.568220 -0.000000 0.245971 0.152807 -0.399636
2.655000 -84.715325 114.472619 -0.000000 0.203896 0.500179 -0.160282 132.238564 497.559100 -0.000000 0.240418 0.151937 -0.399488
2.660000 -83.125052 129.410483 -0.000000 0.209327 0.501572 -0.160523 135.963984 437.977072 -0.000000 0.234920 0.151425 -0.399353
2.665000 -81.425886 144.542461 -0.000000 0.214763 0.502560 -0.160542 136.968925 374.198347 -0.000000 0.229525 0.151286 -0.399253
2.670000 -79.852164 160.398978 -0.000000 0.220068 0.503275 -0.160488 135.050077 308.073076 -0.000000 0.224211 0.151440 -0.399131
2.675000 -78.577125 177.587193 -0.000000 0.225374 0.503625 -0.160403 130.455637 241.591833 -0.000000 0.219020 0.151880 -0.399083
2.680000 -77.886614 196.612870 -0.000000 0.230486 0.503558 -0.160307 123.515108 176.770306 -0.000000 0.213908 0.152578 -0.398940
2.685000 -77.804667 217.981845 -0.000000 0.235557 0.503137 -0.160134 115.009437 115.177035 -0.000000 0.208712 0.153492 -0.398868
2.690000 -78.588202 241.974400 -0.000000 0.240506 0.502160 -0.159890 105.518224 58.189202 -0.000000 0.203512 0.154692 -0.398822
2.695000 -80.277260 268.790284 -0.000000 0.245445 0.501006 -0.159847 95.693877 6.726314 -0.000000 0.198198 0.156110 -0.398747
2.700000 -83.024553 298.358254 -0.000000 0.250369 0.499439 -0.159471 85.979054 -38.575012 -0.000000 0.192807 0.157778 -0.398623
2.705000 -86.770565 330.372798 -0.000000 0.255278 0.497216 -0.159350 76.622805 -77.453819 -0.000000 0.187262 0.159713 -0.398500
2.710000 -91.676789 364.158390 -0.000000 0.260221 0.494883 -0.159161 67.783319 -109.763366 -0.000000 0.181732 0.161956 -0.398381
2.715000 -97.839974 398.785799 -0.000000 0.264953 0.492148 -0.159217 59.622192 -135.448723 -0.000000 0.176179 0.164405 -0.398359
2.720000 -104.854305 433.243141 -0.000000 0.269670 0.488999 -0.159284 52.181364 -154.603966 -0.000000 0.170560 0.167025 -0.398381
2.725000 -112.614423 466.333091 -0.000000 0.274318 0.485540 -0.159252 45.654135 -167.434927 -0.000000 0.164878 0.169773 -0.398491
2.730000 -119.907633 497.125426 -0.000000 0.279565 0.481734 -0.159645 39.876691 -174.476461 -0.000000 0.159188 0.172758 -0.398643
2.735000 -127.478565 524.336106 -0.000000 0.284627 0.477700 -0.159752 35.375817 -176.284696 -0.000000 0.153485 0.176079 -0.398808
2.740000 -134.658813 547.256005 -0.000000 0.289681 0.473407 -0.160016 32.118276 -173.659528 -0.000000 0.147671 0.179658 -0.398968
2.745000 -141.550201 565.316888 -0.000000 0.294736 0.468878 -0.160204 30.265386 -167.326192 -0.000000 0.142002 0.183536 -0.399098
2.750000 -147.472243 578.518731 -0.000000 0.299814 0.464123 -0.160331 29.675404 -157.982988 -0.000000 0.136248 0.187746 -0.399247
2.755000 -152.923535 586.917338 -0.000000 0.304795 0.459131 -0.160456 30.461601 -146.237460 -0.000000 0.130769 0.192279 -0.399373
2.760000 -157.926783 590.970288 -0.000000 0.309615 0.454062 -0.160558 32.474926 -132.743007 -0.000000 0.125471 0.197054 -0.399397
2.765000 -161.497645 591.624066 -0.000000 0.314720 0.448667 -0.160639 35.313483 -118.218865 -0.000000 0.120351 0.202072 -0.399443
2.770000 -164.795198 589.408833 -0.000000 0.319537 0.443105 -0.160589 39.073465 -103.256452 -0.000000 0.115379 0.207320 -0.399591
